<svg width="199" height="61" viewBox="0 0 199 61" fill="none" xmlns="http://www.w3.org/2000/svg">
<path d="M178.536 3.09331C167.487 2.9008 158.359 12.4955 158.15 24.5238C157.94 36.552 166.728 46.459 177.777 46.6515C188.827 46.844 197.954 37.2492 198.164 25.2209C198.373 13.1927 189.586 3.28582 178.536 3.09331Z" fill="#FFC200"/>
<path d="M58.2941 35.6486L45.1715 52.5201L48.8582 57.6094L65.8613 35.7804L49.6289 13.3725L45.7667 18.3553L58.2941 35.6486Z" fill="#FF9D00"/>
<path d="M35.893 35.2583L22.7703 52.1298L26.457 57.2191L43.4602 35.3902L27.2277 12.9822L23.3656 17.965L35.893 35.2583Z" fill="#FF9D00"/>
<path d="M13.2289 34.8635L0.0874717 51.7346L3.79295 56.8242L20.7773 34.995L4.56366 12.5873L0.682704 17.5698L13.2289 34.8635Z" fill="#FF9D00"/>
<path d="M103.359 36.4338L90.2367 53.3052L93.9234 58.3945L110.927 36.5656L94.6941 14.1576L90.832 19.1404L103.359 36.4338Z" fill="#FF9D00"/>
<path d="M80.9582 36.0435L67.8355 52.9149L71.5222 58.0042L88.5254 36.1753L72.293 13.7673L68.4308 18.7501L80.9582 36.0435Z" fill="#FF9D00"/>
</svg>
