<svg width="282" height="110" viewBox="0 0 282 110" fill="none" xmlns="http://www.w3.org/2000/svg">
<path d="M257.857 64.7729L233.889 101.002L209.907 64.7729L185.939 101.002L161.972 64.7729L140.832 96.7276L119.678 64.7729L95.7105 101.002L71.7282 64.7729L47.7605 101.002L23.7928 64.7729L0 100.736L2.65336 104.766L23.7928 72.8114L47.7605 109.04L71.7282 72.8114L95.7105 109.04L119.678 72.8114L140.832 104.788L161.972 72.8114L185.939 109.04L209.907 72.8114L233.889 109.04L257.857 72.8114L279.011 104.766L281.65 100.736L257.857 64.7729Z" fill="#0B315E"/>
<path d="M257.857 0L233.889 36.2286L209.907 0L185.939 36.2286L161.972 0L142.961 28.7437L142.946 36.8043L161.972 8.03848L185.939 44.2671L209.907 8.03848L233.889 44.2671L257.857 8.03848L279.011 39.9931L281.65 35.9407L257.857 0Z" fill="#FF9D00"/>
</svg>
