<svg width="107" height="97" viewBox="0 0 107 97" fill="none" xmlns="http://www.w3.org/2000/svg">
<path d="M102.874 7.48013C100.601 7.48013 98.7487 5.80092 98.7487 3.74007C98.7487 1.67922 100.601 0 102.874 0C105.148 0 107 1.67922 107 3.74007C107 5.81364 105.148 7.48013 102.874 7.48013ZM107 26.1169C107 24.056 105.148 22.3768 102.874 22.3768C100.601 22.3768 98.7487 24.056 98.7487 26.1169C98.7487 28.1777 100.601 29.8569 102.874 29.8569C105.148 29.8569 107 28.1904 107 26.1169ZM107 48.4936C107 46.4328 105.148 44.7536 102.874 44.7536C100.601 44.7536 98.7487 46.4328 98.7487 48.4936C98.7487 50.5545 100.601 52.2337 102.874 52.2337C105.148 52.2464 107 50.5672 107 48.4936ZM107 70.8832C107 68.8223 105.148 67.1431 102.874 67.1431C100.601 67.1431 98.7487 68.8223 98.7487 70.8832C98.7487 72.944 100.601 74.6232 102.874 74.6232C105.148 74.6232 107 72.944 107 70.8832ZM107 93.2599C107 91.1991 105.148 89.5199 102.874 89.5199C100.601 89.5199 98.7487 91.1991 98.7487 93.2599C98.7487 95.3208 100.601 97 102.874 97C105.148 97 107 95.3208 107 93.2599ZM82.3163 3.74007C82.3163 1.67922 80.464 0 78.1906 0C75.9173 0 74.065 1.67922 74.065 3.74007C74.065 5.80092 75.9173 7.48013 78.1906 7.48013C80.464 7.48013 82.3163 5.81364 82.3163 3.74007ZM82.3163 26.1169C82.3163 24.056 80.464 22.3768 78.1906 22.3768C75.9173 22.3768 74.065 24.056 74.065 26.1169C74.065 28.1777 75.9173 29.8569 78.1906 29.8569C80.464 29.8569 82.3163 28.1904 82.3163 26.1169ZM82.3163 48.4936C82.3163 46.4328 80.464 44.7536 78.1906 44.7536C75.9173 44.7536 74.065 46.4328 74.065 48.4936C74.065 50.5545 75.9173 52.2337 78.1906 52.2337C80.464 52.2464 82.3163 50.5672 82.3163 48.4936ZM82.3163 70.8832C82.3163 68.8223 80.464 67.1431 78.1906 67.1431C75.9173 67.1431 74.065 68.8223 74.065 70.8832C74.065 72.944 75.9173 74.6232 78.1906 74.6232C80.464 74.6232 82.3163 72.944 82.3163 70.8832ZM82.3163 93.2599C82.3163 91.1991 80.464 89.5199 78.1906 89.5199C75.9173 89.5199 74.065 91.1991 74.065 93.2599C74.065 95.3208 75.9173 97 78.1906 97C80.464 97 82.3163 95.3208 82.3163 93.2599ZM57.6186 3.74007C57.6186 1.67922 55.7663 0 53.493 0C51.2197 0 49.3673 1.67922 49.3673 3.74007C49.3673 5.80092 51.2197 7.48013 53.493 7.48013C55.7803 7.48013 57.6186 5.81364 57.6186 3.74007ZM57.6186 26.1169C57.6186 24.056 55.7663 22.3768 53.493 22.3768C51.2197 22.3768 49.3673 24.056 49.3673 26.1169C49.3673 28.1777 51.2197 29.8569 53.493 29.8569C55.7803 29.8569 57.6186 28.1904 57.6186 26.1169ZM57.6186 48.4936C57.6186 46.4328 55.7663 44.7536 53.493 44.7536C51.2197 44.7536 49.3673 46.4328 49.3673 48.4936C49.3673 50.5545 51.2197 52.2337 53.493 52.2337C55.7803 52.2464 57.6186 50.5672 57.6186 48.4936ZM57.6186 70.8832C57.6186 68.8223 55.7663 67.1431 53.493 67.1431C51.2197 67.1431 49.3673 68.8223 49.3673 70.8832C49.3673 72.944 51.2197 74.6232 53.493 74.6232C55.7803 74.6232 57.6186 72.944 57.6186 70.8832ZM57.6186 93.2599C57.6186 91.1991 55.7663 89.5199 53.493 89.5199C51.2197 89.5199 49.3673 91.1991 49.3673 93.2599C49.3673 95.3208 51.2197 97 53.493 97C55.7803 97 57.6186 95.3208 57.6186 93.2599ZM32.9349 3.74007C32.9349 1.67922 31.0826 0 28.8093 0C26.536 0 24.6837 1.67922 24.6837 3.74007C24.6837 5.80092 26.536 7.48013 28.8093 7.48013C31.0966 7.48013 32.9349 5.81364 32.9349 3.74007ZM32.9349 26.1169C32.9349 24.056 31.0826 22.3768 28.8093 22.3768C26.536 22.3768 24.6837 24.056 24.6837 26.1169C24.6837 28.1777 26.536 29.8569 28.8093 29.8569C31.0966 29.8569 32.9349 28.1904 32.9349 26.1169ZM32.9349 48.4936C32.9349 46.4328 31.0826 44.7536 28.8093 44.7536C26.536 44.7536 24.6837 46.4328 24.6837 48.4936C24.6837 50.5545 26.536 52.2337 28.8093 52.2337C31.0966 52.2464 32.9349 50.5672 32.9349 48.4936ZM32.9349 70.8832C32.9349 68.8223 31.0826 67.1431 28.8093 67.1431C26.536 67.1431 24.6837 68.8223 24.6837 70.8832C24.6837 72.944 26.536 74.6232 28.8093 74.6232C31.0966 74.6232 32.9349 72.944 32.9349 70.8832ZM32.9349 93.2599C32.9349 91.1991 31.0826 89.5199 28.8093 89.5199C26.536 89.5199 24.6837 91.1991 24.6837 93.2599C24.6837 95.3208 26.536 97 28.8093 97C31.0966 97 32.9349 95.3208 32.9349 93.2599ZM8.25129 3.74007C8.25129 1.67922 6.39895 0 4.12564 0C1.85233 0 0 1.67922 0 3.74007C0 5.80092 1.85233 7.48013 4.12564 7.48013C6.39895 7.48013 8.25129 5.81364 8.25129 3.74007ZM8.25129 26.1169C8.25129 24.056 6.39895 22.3768 4.12564 22.3768C1.85233 22.3768 0 24.056 0 26.1169C0 28.1777 1.85233 29.8569 4.12564 29.8569C6.39895 29.8569 8.25129 28.1904 8.25129 26.1169ZM8.25129 48.4936C8.25129 46.4328 6.39895 44.7536 4.12564 44.7536C1.85233 44.7536 0 46.4328 0 48.4936C0 50.5545 1.85233 52.2337 4.12564 52.2337C6.39895 52.2337 8.25129 50.5672 8.25129 48.4936ZM8.25129 70.8832C8.25129 68.8223 6.39895 67.1431 4.12564 67.1431C1.85233 67.1431 0 68.8223 0 70.8832C0 72.944 1.85233 74.6232 4.12564 74.6232C6.39895 74.6232 8.25129 72.944 8.25129 70.8832ZM8.25129 93.2599C8.25129 91.1991 6.39895 89.5199 4.12564 89.5199C1.85233 89.5199 0 91.1991 0 93.2599C0 95.3208 1.85233 97 4.12564 97C6.39895 97 8.25129 95.3208 8.25129 93.2599Z" fill="#244579"/>
</svg>
